<svg xmlns="http://www.w3.org/2000/svg" width="24" height="22" viewBox="0 0 24 22">
    <g fill="#999" fill-rule="nonzero">
        <path d="M16.773 15.476H16.3a1.25 1.25 0 0 0 0 2.5h.478a6.944 6.944 0 0 0 .98-13.823.251.251 0 0 1-.208-.246V1.93A1.25 1.25 0 0 0 15.584.906l-4.778 3.341a1.25 1.25 0 0 0 .717 2.274h4.764c2.829 0 4.963 1.925 4.963 4.478a4.482 4.482 0 0 1-4.477 4.477zM6.247 17.845c.12.02.208.124.208.246v1.976a1.249 1.249 0 0 0 1.966 1.024l4.773-3.34a1.251 1.251 0 0 0-.717-2.275H7.713c-2.829 0-4.963-1.925-4.963-4.476a4.482 4.482 0 0 1 4.477-4.479h.478a1.25 1.25 0 1 0 0-2.5h-.478a6.945 6.945 0 0 0-.98 13.824z"/>
    </g>
</svg>
