<svg xmlns="http://www.w3.org/2000/svg" width="19" height="19" viewBox="0 0 19 19">
    <g fill="#999" fill-rule="nonzero">
        <path d="M18.802 1.942A1.746 1.746 0 0 0 17.06.2h-4.537a.99.99 0 1 0 0 1.98h4.102c.11 0 .198.088.198.197v2.588a.99.99 0 1 0 1.98 0V1.942zM.198 4.965a.99.99 0 0 0 1.98 0v-2.59a.198.198 0 0 1 .197-.199h4.102a.99.99 0 0 0 0-1.979H1.944C.983.2.204.978.202 1.94L.198 4.965zM18.802 17.056v-3.023a.99.99 0 1 0-1.98 0v2.592c0 .11-.088.198-.197.198h-4.102a.99.99 0 1 0 0 1.98h4.533c.964-.001 1.746-.783 1.746-1.747zM.198 17.056a1.746 1.746 0 0 0 1.746 1.742h4.533a.99.99 0 1 0 0-1.979H2.375a.198.198 0 0 1-.198-.194v-2.592a.99.99 0 1 0-1.98 0v3.023z"/>
        <rect width="10.651" height="6.117" x="4.174" y="6.441" rx="1.954"/>
    </g>
</svg>
