<svg xmlns="http://www.w3.org/2000/svg" width="10" height="8" viewBox="0 0 10 8">
    <g fill="#000" fill-rule="nonzero" transform="matrix(-1 0 0 1 10 0)">
        <path d="M9.997 4a.61.61 0 0 0-.196-.447L7.037.987a.417.417 0 0 0-.7.305v1.354a.104.104 0 0 1-.104.104H4.17a.417.417 0 0 0-.417.417v1.666c0 .23.186.417.417.417h2.063c.057 0 .104.047.104.104v1.354a.417.417 0 0 0 .7.306L9.8 4.447A.612.612 0 0 0 9.997 4z"/>
        <rect width="1.25" height="2.5" x="1.878" y="2.75" rx=".625"/>
        <rect width="1.25" height="2.5" x=".003" y="2.75" rx=".625"/>
    </g>
</svg>
