<svg xmlns="http://www.w3.org/2000/svg" width="8" height="10" viewBox="0 0 8 10">
    <g fill="#000" fill-rule="nonzero" transform="matrix(1 0 0 -1 -1 10)">
        <path d="M5.447.195a.627.627 0 0 0-.894 0L1.986 2.958a.417.417 0 0 0 .306.7h1.354c.057 0 .104.047.104.105v2.063c0 .23.187.417.417.417h1.666c.23 0 .417-.187.417-.417V3.763c0-.058.047-.104.104-.104h1.354a.417.417 0 0 0 .306-.7L5.448.194z"/>
        <rect width="2.5" height="1.25" x="3.75" y="6.867" rx=".625"/>
        <rect width="2.5" height="1.25" x="3.75" y="8.742" rx=".625"/>
    </g>
</svg>
