<svg xmlns="http://www.w3.org/2000/svg" width="10" height="10" viewBox="0 0 10 10">
    <g fill="#777" fill-rule="nonzero">
        <rect width="4.167" height="4.167" x="2.917" y="2.916" rx="1.5"/>
        <path d="M0 9.792c0 .115.093.208.208.208h2.084a.208.208 0 0 0 .147-.356l-.6-.6a.104.104 0 0 1 0-.147l.821-.82a.52.52 0 0 0-.737-.737l-.82.82a.105.105 0 0 1-.148 0l-.6-.6A.208.208 0 0 0 0 7.708v2.084zM10 .208A.208.208 0 0 0 9.792 0H7.708a.208.208 0 0 0-.147.355l.6.6a.104.104 0 0 1 0 .148l-.821.82a.52.52 0 0 0 .737.737l.82-.82a.104.104 0 0 1 .148 0l.6.599A.208.208 0 0 0 10 2.292V.208zM.208 0A.208.208 0 0 0 0 .208v2.084a.208.208 0 0 0 .356.147l.6-.6a.104.104 0 0 1 .147 0l.82.82a.52.52 0 1 0 .737-.736l-.82-.82a.104.104 0 0 1 0-.148l.6-.6A.208.208 0 0 0 2.291 0H.208zM10 9.792V7.708a.208.208 0 0 0-.356-.147l-.6.6a.105.105 0 0 1-.147 0l-.82-.821a.52.52 0 1 0-.737.737l.82.82a.104.104 0 0 1 0 .148l-.6.6a.208.208 0 0 0 .148.355h2.084A.208.208 0 0 0 10 9.792z"/>
    </g>
</svg>
