<?xml version="1.0" standalone="no"?>
<!DOCTYPE svg PUBLIC "-//W3C//DTD SVG 20010904//EN"
 "http://www.w3.org/TR/2001/REC-SVG-20010904/DTD/svg10.dtd">
<svg version="1.0" xmlns="http://www.w3.org/2000/svg"
 width="1705.000000pt" height="1903.000000pt" viewBox="0 0 1705.000000 1903.000000"
 preserveAspectRatio="xMidYMid meet">
<metadata>
Created by potrace 1.15, written by Peter Selinger 2001-2017
</metadata>
<g transform="translate(0.000000,1903.000000) scale(0.100000,-0.100000)"
fill="#000000" stroke="none">
<path d="M0 9515 l0 -9515 1583 0 1582 0 4430 4655 c2437 2561 4457 4687 4490
4726 33 38 1164 1227 2513 2642 l2452 2572 0 2192 c0 1206 -2 2193 -4 2193 -3
0 -1597 -1652 -3542 -3671 l-3538 -3671 -31 35 c-16 20 -1497 1683 -3290 3696
l-3260 3661 -1692 0 -1693 0 0 -9515z m5504 2412 c1253 -1413 2279 -2574 2282
-2580 3 -9 -3274 -3438 -4597 -4811 -5 -6 -9 1968 -9 4999 l0 5010 24 -25 c13
-14 1048 -1181 2300 -2593z"/>
<path d="M13924 7584 c-34 -17 -2029 -2158 -2029 -2178 0 -15 5121 -5400 5141
-5404 12 -3 14 295 14 2241 l0 2245 -1478 1543 c-813 849 -1490 1550 -1505
1557 -38 16 -105 15 -143 -4z"/>
</g>
</svg>
