<svg xmlns="http://www.w3.org/2000/svg" width="19" height="19" viewBox="0 0 19 19">
    <path fill="#999" fill-rule="nonzero" d="M17.812 7.52h-1.474a7.09 7.09 0 0 0-.604-1.456l1.043-1.042a1.187 1.187 0 0 0 0-1.68l-1.12-1.118a1.188 1.188 0 0 0-1.68 0l-1.043 1.042a7.05 7.05 0 0 0-1.455-.604V1.188C11.48.531 10.948 0 10.292 0H8.708c-.656 0-1.187.532-1.187 1.188v1.474a7.1 7.1 0 0 0-1.456.604L5.022 2.224a1.187 1.187 0 0 0-1.68 0l-1.12 1.12a1.188 1.188 0 0 0 0 1.68l1.044 1.042c-.256.46-.458.949-.604 1.455H1.188C.531 7.52 0 8.052 0 8.708v1.584c0 .656.532 1.187 1.188 1.187h1.474c.146.507.348.995.604 1.456L2.22 13.979a1.188 1.188 0 0 0 0 1.68l1.12 1.119a1.223 1.223 0 0 0 1.68 0l1.043-1.043c.462.255.95.458 1.457.605v1.472c0 .656.531 1.188 1.187 1.188h1.584c.656 0 1.187-.532 1.187-1.188V16.34c.506-.147.995-.35 1.456-.604l1.043 1.043a1.188 1.188 0 0 0 1.68 0l1.119-1.12a1.187 1.187 0 0 0 0-1.679l-1.043-1.043c.256-.461.458-.95.604-1.456h1.474A1.188 1.188 0 0 0 19 10.29V8.709c0-.656-.532-1.187-1.188-1.187zM9.5 13.459a3.958 3.958 0 1 1 0-7.916 3.958 3.958 0 0 1 0 7.916z"/>
</svg>
