<!-- Generated by IcoMoon.io -->
<svg version="1.1" xmlns="http://www.w3.org/2000/svg" width="32" height="32" viewBox="0 0 32 32">
<title>arrow-right</title>
<path d="M31.99 16c-0.001-0.565-0.242-1.073-0.626-1.429l-0.001-0.001-8.845-8.211c-0.237-0.22-0.556-0.354-0.906-0.354-0.736 0-1.332 0.595-1.334 1.33v4.333c0 0.184-0.149 0.333-0.333 0.333h-6.602c-0.737 0-1.334 0.597-1.334 1.334v0 5.331c0 0.736 0.595 1.334 1.334 1.334h6.602c0.182 0 0.333 0.15 0.333 0.333v4.333c0 0.737 0.598 1.334 1.334 1.334 0.35 0 0.668-0.135 0.906-0.355l-0.001 0.001 8.842-8.211c0.387-0.358 0.629-0.867 0.63-1.433v-0z"></path>
<path d="M8.010 12c1.105 0 2 0.895 2 2v4c0 1.105-0.895 2-2 2s-2-0.895-2-2v-4c0-1.105 0.895-2 2-2z"></path>
<path d="M2.010 12c1.105 0 2 0.895 2 2v4c0 1.105-0.895 2-2 2s-2-0.895-2-2v-4c0-1.105 0.895-2 2-2z"></path>
</svg>
