<!-- Generated by IcoMoon.io -->
<svg version="1.1" xmlns="http://www.w3.org/2000/svg" width="32" height="32" viewBox="0 0 32 32">
<title>arrow-righe-circle</title>
<path fill="#999" opacity="0.521" d="M32 16c0 8.837-7.163 16-16 16s-16-7.163-16-16c0-8.837 7.163-16 16-16s16 7.163 16 16z"></path>
<path fill="#777" d="M23.467 16c0 0.687-0.557 1.245-1.245 1.245s-1.245-0.557-1.245-1.245c0-0.687 0.557-1.245 1.245-1.245s1.245 0.557 1.245 1.245z"></path>
<path fill="#777" d="M20.978 19.111c0 0.687-0.557 1.245-1.245 1.245s-1.245-0.557-1.245-1.245c0-0.687 0.557-1.245 1.245-1.245s1.245 0.557 1.245 1.245z"></path>
<path fill="#777" d="M18.49 21.6c0 0.687-0.557 1.245-1.245 1.245s-1.245-0.557-1.245-1.245c0-0.687 0.557-1.245 1.245-1.245s1.245 0.557 1.245 1.245z"></path>
<path fill="#777" d="M20.978 12.889c0 0.687-0.557 1.245-1.245 1.245s-1.245-0.557-1.245-1.245c0-0.687 0.557-1.245 1.245-1.245s1.245 0.557 1.245 1.245z"></path>
<path fill="#777" d="M18.49 10.4c0 0.687-0.557 1.245-1.245 1.245s-1.245-0.557-1.245-1.245c0-0.687 0.557-1.245 1.245-1.245s1.245 0.557 1.245 1.245z"></path>
<path fill="#777" d="M11.023 16c0 0.687-0.557 1.245-1.245 1.245s-1.245-0.557-1.245-1.245c0-0.687 0.557-1.245 1.245-1.245s1.245 0.557 1.245 1.245z"></path>
<path fill="#777" d="M14.133 16c0 0.687-0.557 1.245-1.245 1.245s-1.245-0.557-1.245-1.245c0-0.687 0.557-1.245 1.245-1.245s1.245 0.557 1.245 1.245z"></path>
<path fill="#777" d="M17.245 16c0 0.687-0.557 1.245-1.245 1.245s-1.245-0.557-1.245-1.245c0-0.687 0.557-1.245 1.245-1.245s1.245 0.557 1.245 1.245z"></path>
<path fill="#777" d="M20.356 16c0 0.687-0.557 1.245-1.245 1.245s-1.245-0.557-1.245-1.245c0-0.687 0.557-1.245 1.245-1.245s1.245 0.557 1.245 1.245z"></path>
</svg>
