<!-- Generated by IcoMoon.io -->
<svg version="1.1" xmlns="http://www.w3.org/2000/svg" width="32" height="32" viewBox="0 0 32 32">
<title>arrow-left-circle</title>
<path fill="#999" opacity="0.521" d="M0 16c0 8.837 7.163 16 16 16s16-7.163 16-16c0-8.837-7.163-16-16-16s-16 7.163-16 16z"></path>
<path fill="#777" d="M8.533 16c0 0.687 0.557 1.245 1.245 1.245s1.245-0.557 1.245-1.245c0-0.687-0.557-1.245-1.245-1.245s-1.245 0.557-1.245 1.245z"></path>
<path fill="#777" d="M11.022 19.111c0 0.687 0.557 1.245 1.245 1.245s1.245-0.557 1.245-1.245c0-0.687-0.557-1.245-1.245-1.245s-1.245 0.557-1.245 1.245z"></path>
<path fill="#777" d="M13.51 21.6c0 0.687 0.557 1.245 1.245 1.245s1.245-0.557 1.245-1.245c0-0.687-0.557-1.245-1.245-1.245s-1.245 0.557-1.245 1.245z"></path>
<path fill="#777" d="M11.022 12.889c0 0.687 0.557 1.245 1.245 1.245s1.245-0.557 1.245-1.245c0-0.687-0.557-1.245-1.245-1.245s-1.245 0.557-1.245 1.245z"></path>
<path fill="#777" d="M13.51 10.4c0 0.687 0.557 1.245 1.245 1.245s1.245-0.557 1.245-1.245c0-0.687-0.557-1.245-1.245-1.245s-1.245 0.557-1.245 1.245z"></path>
<path fill="#777" d="M20.977 16c0 0.687 0.557 1.245 1.245 1.245s1.245-0.557 1.245-1.245c0-0.687-0.557-1.245-1.245-1.245s-1.245 0.557-1.245 1.245z"></path>
<path fill="#777" d="M17.867 16c0 0.687 0.557 1.245 1.245 1.245s1.245-0.557 1.245-1.245c0-0.687-0.557-1.245-1.245-1.245s-1.245 0.557-1.245 1.245z"></path>
<path fill="#777" d="M14.755 16c0 0.687 0.557 1.245 1.245 1.245s1.245-0.557 1.245-1.245c0-0.687-0.557-1.245-1.245-1.245s-1.245 0.557-1.245 1.245z"></path>
<path fill="#777" d="M11.644 16c0 0.687 0.557 1.245 1.245 1.245s1.245-0.557 1.245-1.245c0-0.687-0.557-1.245-1.245-1.245s-1.245 0.557-1.245 1.245z"></path>
</svg>
