<!-- Generated by IcoMoon.io -->
<svg version="1.1" xmlns="http://www.w3.org/2000/svg" width="32" height="32" viewBox="0 0 32 32">
<title>arrow-top</title>
<path d="M17.43 0.624c-0.364-0.37-0.871-0.599-1.43-0.599s-1.066 0.229-1.43 0.599l-0 0-8.214 8.842c-0.22 0.237-0.354 0.556-0.354 0.906 0 0.737 0.597 1.334 1.333 1.334h4.333c0.182 0 0.333 0.15 0.333 0.336v6.602c0 0.736 0.598 1.334 1.334 1.334h5.331c0.736 0 1.334-0.598 1.334-1.334v-6.602c0-0.186 0.15-0.333 0.333-0.333h4.333c0.737-0.001 1.334-0.598 1.334-1.334 0-0.35-0.135-0.668-0.355-0.906l0.001 0.001-8.214-8.848z"></path>
<path d="M14 21.974h4c1.105 0 2 0.895 2 2s-0.895 2-2 2h-4c-1.105 0-2-0.895-2-2s0.895-2 2-2z"></path>
<path d="M14 27.974h4c1.105 0 2 0.895 2 2s-0.895 2-2 2h-4c-1.105 0-2-0.895-2-2s0.895-2 2-2z"></path>
</svg>
