<!-- Generated by IcoMoon.io -->
<svg version="1.1" xmlns="http://www.w3.org/2000/svg" width="32" height="32" viewBox="0 0 32 32">
<title>burger-vertical</title>
<path d="M28.764 2.668v26.668c0 1.105-0.895 2-2 2s-2-0.895-2-2v-26.668c0-1.105 0.895-2 2-2s2 0.895 2 2z"></path>
<path d="M18.1 2.668v26.668c0 1.105-0.895 2-2 2s-2-0.895-2-2v-26.668c0-1.105 0.895-2 2-2s2 0.895 2 2z"></path>
<path d="M7.432 2.668v26.668c0 1.105-0.895 2-2 2s-2-0.895-2-2v-26.668c0-1.105 0.895-2 2-2s2 0.895 2 2z"></path>
</svg>
