<!-- Generated by IcoMoon.io -->
<svg version="1.1" xmlns="http://www.w3.org/2000/svg" width="32" height="32" viewBox="0 0 32 32">
<title>burger-horizontal</title>
<path d="M2.668 2.668h26.668c1.105 0 2 0.895 2 2s-0.895 2-2 2h-26.668c-1.105 0-2-0.895-2-2s0.895-2 2-2z"></path>
<path d="M2.668 13.332h26.668c1.105 0 2 0.895 2 2s-0.895 2-2 2h-26.668c-1.105 0-2-0.895-2-2s0.895-2 2-2z"></path>
<path d="M2.668 24h26.668c1.105 0 2 0.895 2 2s-0.895 2-2 2h-26.668c-1.105 0-2-0.895-2-2s0.895-2 2-2z"></path>
</svg>
