<!-- Generated by IcoMoon.io -->
<svg version="1.1" xmlns="http://www.w3.org/2000/svg" width="32" height="32" viewBox="0 0 32 32">
<title>DonkeyClip</title>
<path fill="#777" d="M25.811 3.454v11.010h-3.479c-0.696-2.447-2.974-4.246-5.638-4.246-3.238 0-5.877 2.638-5.877 5.877s2.638 5.877 5.877 5.877c2.686 0 4.942-1.799 5.638-4.246h3.334c-0.767 4.246-4.485 7.509-8.972 7.509-5.014 0-9.115-4.078-9.115-9.115 0-5.014 4.078-9.115 9.115-9.115 2.231 0 4.294 0.815 5.877 2.159v-7.652c-1.992-0.912-4.222-1.415-6.572-1.415-8.779 0-15.904 7.125-15.904 15.904s7.125 15.904 15.904 15.904c8.779 0 15.904-7.125 15.904-15.904 0.024-5.109-2.375-9.644-6.093-12.546z"></path>
</svg>
