<!-- Generated by IcoMoon.io -->
<svg version="1.1" xmlns="http://www.w3.org/2000/svg" width="32" height="32" viewBox="0 0 32 32">
<title>expand</title>
<path fill="#777" d="M14.134 9.331h3.734c2.651 0 4.8 2.149 4.8 4.8v3.734c0 2.651-2.149 4.8-4.8 4.8h-3.734c-2.651 0-4.8-2.149-4.8-4.8v-3.734c0-2.651 2.149-4.8 4.8-4.8z"></path>
<path fill="#777" d="M0 31.334c0 0.368 0.298 0.666 0.666 0.666h6.669c0.001 0 0.002 0 0.003 0 0.368 0 0.666-0.298 0.666-0.666 0-0.185-0.076-0.353-0.198-0.474l-1.92-1.92c-0.060-0.060-0.097-0.143-0.097-0.235s0.037-0.175 0.097-0.235v0l2.627-2.624c0.302-0.302 0.488-0.719 0.488-1.179 0-0.921-0.747-1.668-1.668-1.668-0.46 0-0.877 0.187-1.179 0.488v0l-2.624 2.624c-0.061 0.060-0.144 0.098-0.237 0.098s-0.176-0.037-0.237-0.098l-1.92-1.92c-0.12-0.12-0.287-0.195-0.47-0.195-0.368 0-0.666 0.298-0.666 0.666 0 0.001 0 0.002 0 0.003v-0 6.669zM32 0.666c0-0.368-0.298-0.666-0.666-0.666h-6.669c-0.367 0-0.665 0.298-0.665 0.666 0 0.184 0.074 0.35 0.195 0.47v0l1.92 1.92c0.061 0.060 0.099 0.144 0.099 0.237s-0.038 0.176-0.099 0.237l-0 0-2.627 2.624c-0.302 0.302-0.488 0.719-0.488 1.179 0 0.921 0.747 1.668 1.668 1.668 0.46 0 0.877-0.187 1.179-0.488v0l2.624-2.624c0.060-0.061 0.144-0.099 0.237-0.099s0.176 0.038 0.237 0.099l0 0 1.92 1.917c0.12 0.12 0.287 0.195 0.47 0.195 0.367 0 0.665-0.298 0.666-0.665v-6.669zM0.666 0c-0.368 0-0.666 0.298-0.666 0.666v0 6.669c0 0.001 0 0.002 0 0.003 0 0.368 0.298 0.666 0.666 0.666 0.185 0 0.353-0.076 0.474-0.198l1.92-1.92c0.060-0.060 0.143-0.097 0.235-0.097s0.175 0.037 0.235 0.097v0l2.624 2.624c0.302 0.302 0.719 0.489 1.179 0.489 0.92 0 1.667-0.746 1.667-1.667 0-0.46-0.186-0.876-0.487-1.178l-2.624-2.624c-0.061-0.060-0.099-0.144-0.099-0.237s0.038-0.176 0.099-0.237l1.92-1.92c0.12-0.12 0.195-0.287 0.195-0.47 0-0.368-0.298-0.666-0.666-0.666-0.002 0-0.004 0-0.006 0h-6.665zM32 31.334v-6.669c0-0.001 0-0.002 0-0.003 0-0.368-0.298-0.666-0.666-0.666-0.185 0-0.353 0.076-0.474 0.198l-1.92 1.92c-0.061 0.059-0.144 0.096-0.235 0.096s-0.175-0.037-0.235-0.096l0 0-2.624-2.627c-0.302-0.302-0.719-0.488-1.179-0.488-0.921 0-1.668 0.747-1.668 1.668 0 0.46 0.187 0.877 0.488 1.179v0l2.624 2.624c0.061 0.060 0.099 0.144 0.099 0.237s-0.038 0.176-0.099 0.237l-1.92 1.92c-0.12 0.12-0.195 0.287-0.195 0.47 0 0.368 0.298 0.666 0.666 0.666 0.001 0 0.002 0 0.003 0h6.669c0.368 0 0.666-0.298 0.666-0.666v0z"></path>
</svg>
