<!-- Generated by IcoMoon.io -->
<svg version="1.1" xmlns="http://www.w3.org/2000/svg" width="32" height="32" viewBox="0 0 32 32">
<title>expand-full</title>
<path fill="#999" d="M31.667 3.271c-0.004-1.619-1.315-2.93-2.934-2.934h-7.642c-0.921 0-1.667 0.747-1.667 1.667s0.747 1.667 1.667 1.667h6.909c0.185 0 0.333 0.148 0.333 0.332v4.359c0 0.921 0.747 1.667 1.667 1.667s1.667-0.746 1.667-1.667v0-5.091zM0.333 8.362c0 0.921 0.746 1.667 1.667 1.667s1.667-0.746 1.667-1.667v0-4.362c0-0.001 0-0.001 0-0.002 0-0.184 0.148-0.333 0.332-0.333h6.909c0.898-0.029 1.614-0.764 1.614-1.667s-0.717-1.637-1.612-1.666l-0.003-0h-7.635c-1.619 0.005-2.931 1.315-2.934 2.936l-0.007 5.095zM31.667 28.726v-5.091c0-0.921-0.747-1.667-1.667-1.667s-1.667 0.747-1.667 1.667v0 4.365c0 0.185-0.148 0.333-0.332 0.333h-6.909c-0.921 0-1.667 0.747-1.667 1.667s0.747 1.667 1.667 1.667v0h7.635c1.624-0.002 2.941-1.319 2.941-2.942zM0.333 28.726c0.004 1.621 1.319 2.934 2.941 2.934 0 0 0 0 0 0h7.635c0.016 0.001 0.034 0.001 0.053 0.001 0.921 0 1.667-0.747 1.667-1.667s-0.746-1.667-1.667-1.667c-0.019 0-0.037 0-0.056 0.001l0.003-0h-6.909c-0 0-0 0-0 0-0.182 0-0.33-0.145-0.333-0.326v-4.366c0-0.921-0.747-1.667-1.667-1.667s-1.667 0.747-1.667 1.667v0 5.091z"></path>
<path fill="#999" d="M10.321 10.848h11.357c1.818 0 3.291 1.473 3.291 3.291v3.72c0 1.818-1.473 3.291-3.291 3.291h-11.357c-1.818 0-3.291-1.473-3.291-3.291v-3.72c0-1.818 1.473-3.291 3.291-3.291z"></path>
</svg>
