<!-- Generated by IcoMoon.io -->
<svg version="1.1" xmlns="http://www.w3.org/2000/svg" width="32" height="32" viewBox="0 0 32 32">
<title>loop</title>
<path fill="#999" d="M22.364 21.968h-0.631c-0.92 0-1.667 0.746-1.667 1.667s0.746 1.667 1.667 1.667h0.637c0.013 0 0.028 0 0.044 0 5.113 0 9.259-4.145 9.259-9.259 0-4.668-3.454-8.529-7.946-9.166l-0.049-0.006c-0.158-0.028-0.276-0.164-0.277-0.328v-2.636c-0-0.92-0.746-1.666-1.667-1.666-0.357 0-0.689 0.112-0.96 0.304l0.005-0.003-6.371 4.455c-0.432 0.305-0.711 0.803-0.711 1.365 0 0.92 0.746 1.667 1.667 1.667 0 0 0 0 0 0h6.352c3.772 0 6.617 2.567 6.617 5.971-0.004 3.295-2.674 5.966-5.969 5.969h-0zM8.329 25.127c0.16 0.027 0.277 0.165 0.277 0.328v2.635c0 0.001 0 0.001 0 0.002 0 0.92 0.746 1.665 1.665 1.665 0.358 0 0.69-0.113 0.961-0.305l-0.005 0.003 6.364-4.453c0.432-0.306 0.71-0.803 0.71-1.365 0-0.92-0.746-1.667-1.666-1.668h-6.352c-3.772 0-6.617-2.567-6.617-5.968 0.002-3.296 2.673-5.968 5.969-5.972h0.638c0.92 0 1.667-0.746 1.667-1.667s-0.746-1.667-1.667-1.667v0h-0.637c-0.010-0-0.022-0-0.034-0-5.114 0-9.26 4.146-9.26 9.26 0 4.665 3.45 8.524 7.937 9.166l0.049 0.006z"></path>
</svg>
