<!-- Generated by IcoMoon.io -->
<svg id="play-svg" version="1.1" xmlns="http://www.w3.org/2000/svg" width="32" height="32" viewBox="0 0 32 32">
<title>play</title>
<path fill="#999" d="M27.558 13.624l-21.827-13.232c-0.402-0.248-0.89-0.395-1.411-0.395-1.502 0-2.72 1.218-2.72 2.72 0 0.002 0 0.004 0 0.006v-0 26.461c0 0.001 0 0.002 0 0.003 0 1.502 1.218 2.72 2.72 2.72 0.522 0 1.009-0.147 1.423-0.401l-0.012 0.007 21.827-13.232c0.792-0.485 1.313-1.346 1.313-2.328s-0.521-1.843-1.301-2.321l-0.012-0.007z"></path>
</svg>
