<!-- Generated by IcoMoon.io -->
<svg version="1.1" xmlns="http://www.w3.org/2000/svg" width="32" height="32" viewBox="0 0 32 32">
<title>settings</title>
<path fill="#999" d="M29.999 12.665h-2.483c-0.275-0.938-0.621-1.751-1.048-2.512l0.031 0.060 1.757-1.755c0.362-0.362 0.587-0.862 0.587-1.415s-0.224-1.053-0.587-1.415l-1.886-1.883c-0.362-0.362-0.862-0.586-1.415-0.586s-1.053 0.224-1.415 0.586l-1.757 1.755c-0.701-0.397-1.514-0.743-2.366-0.996l-0.084-0.021v-2.483c0.002-1.107-0.894-2.001-1.999-2.001h-2.668c-1.105 0-1.999 0.896-1.999 2.001v2.483c-0.938 0.275-1.751 0.621-2.513 1.048l0.060-0.031-1.757-1.755c-0.362-0.362-0.862-0.587-1.415-0.587s-1.053 0.224-1.415 0.587l-1.886 1.886c-0.362 0.362-0.586 0.862-0.586 1.415s0.224 1.053 0.586 1.415v0l1.758 1.755c-0.431 0.775-0.771 1.598-1.017 2.451h-2.483c-1.107-0.002-2.001 0.894-2.001 1.999v2.668c0 1.105 0.896 1.999 2.001 1.999h2.483c0.246 0.854 0.586 1.676 1.017 2.452l-1.762 1.758c-0.362 0.362-0.586 0.862-0.586 1.415s0.224 1.053 0.586 1.415v0l1.886 1.885c0.368 0.348 0.866 0.563 1.415 0.563s1.047-0.214 1.416-0.564l-0.001 0.001 1.757-1.757c0.778 0.429 1.6 0.771 2.454 1.019v2.479c0 1.105 0.894 2.001 1.999 2.001h2.668c1.105 0 1.999-0.896 1.999-2.001v-2.479c0.852-0.248 1.676-0.589 2.452-1.017l1.757 1.757c0.362 0.362 0.862 0.586 1.415 0.586s1.053-0.224 1.415-0.586v0l1.885-1.886c0.362-0.362 0.586-0.862 0.586-1.414s-0.224-1.052-0.586-1.414l-1.757-1.757c0.431-0.776 0.771-1.6 1.017-2.452h2.483c0 0 0.001 0 0.002 0 1.105 0 2.001-0.896 2.001-2.001 0-0.002 0-0.004 0-0.005v0-2.663c0-1.105-0.896-1.999-2.001-1.999zM16 22.668c-3.682 0-6.666-2.985-6.666-6.666s2.985-6.666 6.666-6.666v0c3.682 0 6.666 2.985 6.666 6.666s-2.985 6.666-6.666 6.666v0z"></path>
</svg>
