<svg version="1.1" xmlns="http://www.w3.org/2000/svg" width="32" height="32" viewBox="0 0 32 32"><title>spinner</title><path fill="#999" d="M16 0.43c0.992 0 1.796 1.287 1.796 2.875v1.437c0 1.588-0.804 2.875-1.796 2.875s-1.796-1.287-1.796-2.875v-1.437c0-1.588 0.804-2.875 1.796-2.875z"></path><path fill="#999" d="M23.785 2.516c0.859 0.496 0.913 2.013 0.119 3.388l-0.718 1.245c-0.794 1.374-2.133 2.087-2.993 1.592s-0.913-2.013-0.119-3.388l0.718-1.245c0.794-1.374 2.133-2.087 2.993-1.592z"></path><path fill="#999" d="M29.484 8.215c0.496 0.859-0.216 2.199-1.592 2.993l-1.245 0.718c-1.374 0.794-2.892 0.741-3.388-0.119s0.216-2.199 1.592-2.993l1.245-0.718c1.374-0.794 2.892-0.741 3.388 0.119z"></path><path fill="#999" d="M31.57 16c0 0.992-1.287 1.796-2.875 1.796h-1.437c-1.588 0-2.875-0.804-2.875-1.796s1.287-1.796 2.875-1.796h1.437c1.588 0 2.875 0.804 2.875 1.796z"></path><path fill="#999" d="M29.484 23.785c-0.496 0.859-2.013 0.913-3.388 0.119l-1.245-0.718c-1.374-0.794-2.087-2.133-1.592-2.993s2.013-0.913 3.388-0.119l1.245 0.718c1.374 0.794 2.087 2.133 1.592 2.993z"></path><path fill="#999" d="M23.785 29.484c-0.859 0.496-2.199-0.216-2.993-1.592l-0.718-1.245c-0.794-1.374-0.741-2.892 0.119-3.388s2.199 0.216 2.993 1.592l0.718 1.245c0.794 1.374 0.741 2.892-0.119 3.388z"></path><path fill="#999" d="M16 31.57c-0.992 0-1.796-1.287-1.796-2.875v-1.437c0-1.588 0.804-2.875 1.796-2.875s1.796 1.287 1.796 2.875v1.437c0 1.588-0.804 2.875-1.796 2.875z"></path><path fill="#999" d="M8.215 29.484c-0.859-0.496-0.913-2.013-0.119-3.388l0.718-1.245c0.794-1.374 2.133-2.087 2.993-1.592s0.913 2.013 0.119 3.388l-0.718 1.245c-0.794 1.374-2.133 2.087-2.993 1.592z"></path><path fill="#999" d="M2.516 23.785c-0.496-0.859 0.216-2.199 1.592-2.993l1.245-0.718c1.374-0.794 2.892-0.741 3.388 0.119s-0.216 2.199-1.592 2.993l-1.245 0.718c-1.374 0.794-2.892 0.741-3.388-0.119z"></path><path fill="#999" d="M0.43 16c0-0.992 1.287-1.796 2.875-1.796h1.437c1.588 0 2.875 0.804 2.875 1.796s-1.287 1.796-2.875 1.796h-1.437c-1.588 0-2.875-0.804-2.875-1.796z"></path><path fill="#999" d="M2.516 8.215c0.496-0.859 2.013-0.913 3.388-0.119l1.245 0.718c1.374 0.794 2.087 2.133 1.592 2.993s-2.013 0.913-3.388 0.119l-1.245-0.718c-1.374-0.794-2.087-2.133-1.592-2.993z"></path><path fill="#999" d="M8.215 2.516c0.859-0.496 2.199 0.216 2.993 1.592l0.718 1.245c0.794 1.374 0.741 2.892-0.119 3.388s-2.199-0.216-2.993-1.592l-0.718-1.245c-0.794-1.374-0.741-2.892 0.119-3.388z"></path></svg>