<!-- Generated by IcoMoon.io -->
<svg version="1.1" xmlns="http://www.w3.org/2000/svg" width="32" height="32" viewBox="0 0 32 32">
<title>volume-on</title>
<path d="M26.107 2.991l-3.729 3.185c2.867 2.354 4.694 5.879 4.694 9.824s-1.827 7.47-4.694 9.824l3.729 3.185c3.612-3.226 5.893-7.852 5.893-13.009s-2.281-9.783-5.893-13.009zM19.861 8.326l-3.876 3.312c1.692 0.762 3.038 2.423 3.038 4.362s-1.346 3.6-3.038 4.362l3.876 3.312c2.379-1.756 4.028-4.535 4.028-7.674s-1.649-5.918-4.028-7.674zM12.143 5.399l-7.143 5.601h-3c-1.478 0-2 0.539-2 2v6c0 1.461 0.553 2 2 2h3l7.143 5.595c0.857 0.553 1.85 0.727 1.85-0.823v-19.55c0-1.55-0.993-1.376-1.85-0.823z"></path>
</svg>
