<!-- Generated by IcoMoon.io -->
<svg version="1.1" xmlns="http://www.w3.org/2000/svg" width="32" height="32" viewBox="0 0 32 32">
<title>volume-off</title>
<path d="M27.397 16.001l4.134-4.144c0.625-0.627 0.625-1.641 0-2.267l-1.132-1.134c-0.625-0.626-1.638-0.626-2.263 0l-4.134 4.144-4.133-4.141c-0.625-0.626-1.638-0.626-2.263 0l-1.132 1.134c-0.625 0.626-0.625 1.641 0 2.267l4.134 4.142-4.131 4.142c-0.625 0.626-0.625 1.641 0 2.267l1.132 1.134c0.625 0.626 1.638 0.626 2.263 0l4.131-4.141 4.133 4.14c0.625 0.627 1.638 0.627 2.263 0l1.132-1.134c0.625-0.626 0.625-1.641 0-2.267l-4.134-4.141zM12.148 5.399l-7.146 5.603h-3.001c-1.479 0-2.001 0.539-2.001 2.001l-0 2.951 0 3.051c0 1.461 0.553 2.001 2.001 2.001h3.001l7.146 5.597c0.857 0.553 1.851 0.727 1.851-0.823v-19.556c-0-1.55-0.994-1.376-1.851-0.823z"></path>
</svg>
